<svg width="20" height="20" fill="none" xmlns="http://www.w3.org/2000/svg"><path d="M9.999 6.147a3.853 3.853 0 100 7.707 3.853 3.853 0 000-7.707zm0 6.356a2.503 2.503 0 110-5.006 2.503 2.503 0 010 5.006zm4.006-5.599a.898.898 0 100-1.797.898.898 0 000 1.797z" fill="#fff"/><path d="M17.111 5.092A3.838 3.838 0 0014.917 2.9a5.506 5.506 0 00-1.822-.35c-.802-.035-1.056-.045-3.091-.045s-2.296 0-3.092.045a5.462 5.462 0 00-1.82.35 3.833 3.833 0 00-2.194 2.193 5.487 5.487 0 00-.35 1.822c-.035.802-.046 1.056-.046 3.092 0 2.035 0 2.294.047 3.091.012.624.13 1.239.349 1.823a3.841 3.841 0 002.195 2.193 5.485 5.485 0 001.82.375c.803.035 1.057.046 3.092.046s2.296 0 3.092-.046a5.512 5.512 0 001.822-.349 3.845 3.845 0 002.194-2.194 5.476 5.476 0 00.349-1.822c.036-.801.047-1.055.047-3.091 0-2.036 0-2.295-.047-3.092a5.483 5.483 0 00-.35-1.848zm-1.015 7.944c-.005.48-.093.956-.259 1.407a2.491 2.491 0 01-1.427 1.425 4.153 4.153 0 01-1.391.26c-.792.036-1.015.045-3.045.045-2.032 0-2.24 0-3.046-.045a4.133 4.133 0 01-1.391-.26 2.488 2.488 0 01-1.433-1.425 4.234 4.234 0 01-.259-1.391c-.036-.792-.044-1.015-.044-3.045 0-2.031 0-2.239.044-3.046.006-.48.093-.956.26-1.406a2.489 2.489 0 011.432-1.427 4.175 4.175 0 011.39-.259c.793-.036 1.016-.046 3.047-.046 2.03 0 2.239 0 3.045.046a4.13 4.13 0 011.391.26 2.492 2.492 0 011.427 1.426c.164.446.251.916.26 1.39.035.793.044 1.016.044 3.047 0 2.03 0 2.248-.036 3.045h-.009v-.001z" fill="#fff"/></svg>